/* XPM */
static char *_17afc09ccd94cb2f9905faf1947a60eAnPA5Fp4FBf8cpz9[] = {
/* columns rows colors chars-per-pixel */
"128 128 68 1 ",
"  c #050506",
". c #080507",
"X c #050807",
"o c #090907",
"O c #060608",
"+ c #080708",
"@ c #060809",
"# c #0C0C0C",
"$ c #10100F",
"% c #0F0F10",
"& c #100F10",
"* c #0F1010",
"= c #141414",
"- c #181817",
"; c #171718",
": c #181718",
"> c #171818",
", c #1D1D1D",
"< c #20201F",
"1 c #1F1F20",
"2 c #201F20",
"3 c #1F2020",
"4 c #222222",
"5 c #252425",
"6 c #808080",
"7 c #272726",
"8 c #272627",
"9 c #292827",
"0 c #282728",
"q c #272828",
"w c #292928",
"e c #838383",
"r c #2C2B2A",
"t c #2D2C2B",
"y c #2C2B2C",
"u c #2B2C2C",
"i c #2E2F2F",
"p c #2F2F2F",
"a c #312E2F",
"s c #31302F",
"d c #302F30",
"f c #2F3030",
"g c #323232",
"h c #858585",
"j c #363231",
"k c #363233",
"l c #373533",
"z c #363334",
"x c #343434",
"c c #909090",
"v c #383533",
"b c #383736",
"n c #393837",
"m c #3A3837",
"M c #919191",
"N c #393939",
"B c #393A3B",
"V c #3C3A3A",
"C c #3C3C3C",
"Z c #3C3D3E",
"A c #3E3E3E",
"S c #423E3E",
"D c #44423F",
"F c #424443",
"G c #414445",
"H c #444444",
"J c #444747",
"K c #484746",
/* pixels */
",>>>**#+OO++##*#=,,47,,,==O#####O+###+&++##=;;;===#+  O+ O###++#+======####===$=####&#++#+#&##%###%+##O OO O+  +###=+@OO#+@O===>",
"=====@+++++O#*#OO@O#&#%==;=;==>>,;=######++##O#++#++OO ++==&=&&#+###&====&#+ #===%=#=#&##====##====+=====#&&== ==;=#+OOO O@+====",
"#===,,,>=:;=*====;,,,4,,2,47577470w5,:::4>>>;,,;>>>=====:---2:=:>;===&===,,,4,,,,,4;,,,:,47igriidi0ww4,;,,,,,,,&;,>,,======>==*+",
"##=4w77w4477774ufw7wwriywfywqwwwgdwydd7dCCcaw72,,344442,,744207,17>=#=#==4gCCMFCfy0qw77bg74444244444,,4w77idfwb,wwwr0rwwui=,,>==",
"##7icnc47wfd4,,7777f7,,1,,,313,4,4,25rw547y,477fy7w7qf,;,-=::,77,4,=+#&&;,iJ7w470ww777q7447414,1<,,,,,,,>,,,>>wa4,>,>,444qg,3,=#",
"#O,i413,,7,>,<,,,,4,,,,1,,,,,14,222,,,244>,=>;7Ccgib7;::=,>::,=47,;=####,;fZ49w10q125427w744444441,,1,,,,,,>,4,4w,,,,,,,>,17qg3+",
"##=w,4,1,4,,,,,>,;4,,,,,,,,4,4,,,,,,,2244,,:,,4ar:4,:-;>,-:,,>>,y7;==##&,4Mf0iw1,,,,,,,w74441142,,,4,,,,,,,,,4,,i,,;:,,>,37,4w4#",
"+%,w,,,7,,,44,,,,,,,,,,,,,4,,,,,,,,,,,,247,47,=,,,:,,>:,>>,,,,>,,ww,=#&#,7G727447,44,4,,,1,4,1,2,411,,,,,,,,,2,-,7,4,>:,473>,,4*",
"##=i,7,,;,,,,4,,,,,,,,,,>,,,,44,,>,,>,,25,72,,4,:>,>:::,,,,,4,::>4il,###,4=7,7,2,227,,44,4,4,21444,4,,,,2,,,,4,,,744,,,,,1,--,<-",
"#%=s74,,,,,>,>>,,,,,,:,,,>,,,,,,,>>>:,,25q4,,42,,>,>,>2,>,>,,,,,,>>f,=+#,q,4,2,,,,,24,4244,44,,,,,,,,,,,,,2244,,,,,,,,,,,>>-=4g,",
"@#*gi,,,,,,,,,,,,,,,:,,,,,,,,>,,,,,,,,20222,22,442,-,,,>2,,,,,4:4,,7,=#=;i;:,,,,,,,,,,42,<3,,,,4,4,,,,,,::244,,,,,,,4:=:>>>=>>4>",
"+##ia,>,>>,,>,444,,,:,:,>,>>-,->:-->:,772,,,242422,,,>--,2,,,2,,>-573##*17;:::,,,,-,,,,1,,,,,,,43,,3,,,,,,244,,,,,,,,,,>,>,>--4>",
"+##ii4,>,,,=4444<,,,,,,>,>-,,>,,,:>>,,2,422,,42,,,,,,4,-:,,,,,44,,ww,=#=,4:=>,:,:,:,>,,2,>,,,,4,,,,,4,,,,244,<,,,,,,,4,,>>-:-:4>",
"@+#wi,>>>,,44444,,,>,,,,,>,,,>:,,;,,,,,4,2244,242272,44,-,,,,,w,,,2f7#+=g:==:>,>,:,:,,,,,,,,,4,<,,,,4,,,,4,42,7,,:,,,,->>:::>>47",
"#+#7c>-;,7444444,,,,,,4,,,,,,,,,,,,,,,4,4,4417742,,24424,,,,,,i,,,4a,#+=b===:>:,,,,,,,,,,,,,,,,4,,2,,,4,22,,,,42,,,,,,>>,,,,,>47",
"@##4v,474,,4,,,,,,,,,,44,<4,,,,,,,44,,,2,44244,4424,444,,4r77,,=>,1i,#@#g===-::-,>,,,,,,,,,,4,,,,,,44,,4,44,,2,,,><:-,,,,>,,,=4=",
" #+,g4444,,,:,>,,,,,4,4,4,,,14,,,7,,,3,444444441444,4<34<444=::;,,4a,+##4,=-:>,,-:>,-,,,,:,,,,,,,,,2,2,,1,,4,,,,>-,>-:,74w,;,,4-",
"+#=2g744,,,,,>,>,,,,w4,1,42,4,,,,44,4,,4,444744,,,4344344,444;:;>,4i,O@#,<=>,>>,,,,,>,,,,,,,4,,,,,2,,,,,,4,,,,,,>,-,:,,,27,4,17,",
"===qg44,4,,,,,,,,--,744141442,4,744,,,444344444,,,<434414,4444,,4>,r,#+#:7=:,,,,,,>--,,,,,,,,,,,,,,,,:,>22,,,,,,,->,::,::,2;,,4,",
"##=wM,2,,,,,,>>;,-,,w,1444444441,4,44w744443,444,,,44,,44,,44444424i-###=w::>>>,,,,,->,,,,,,2,,,,,,,,,,,,,,,,,=,,,,,,,::,,,7:,4;",
"##%4a,142,,,,,,,,4,q7444444747444,,44744,4,4,44,,,,,1344,,4<244,44wi,##==7=,,,,,,:>,,,,:,,,,,,,,,,,2,,,,,,4,,,,,,,:,,,,:4,,:,,:#",
"+##4a,,,4,,24,,2,,47444544444,41,44,,,,,3,443,,4,,4441,74,744247q77w,==$-4,,,,,,,,,:>,-,,2,>,,,,,,,,,,,>,,,,,4,,,,,,,,,,,,,,>7,#",
"###471,,,,,,,4,42,22444774444<44444,4,12,,4244,,,,4444,,,,74141q01>,7==*=4,,,,,,>,--->,,,,,,,,,;,222,,,,,,2<,,,,,,,,,:,,4,,449a4",
"##*47,4,,,,40,474,441447444744144,44,4,44,,4,,<<7,,4,447i0747755,;-=;=#=-4,,,,,,,,,:,,,,,;,,,,,,,,2,,,,,,,,,4,,,,,,,,,,,44==,45g",
"#*$<7,,,,,2252,,4,,71447444444423<444,1,4,,4,<<<,4,11,ww7,14,77,>>>,==&#=,,,,,,:>,,>,,,4,,,,,,,4,,,4,,,,424g7,4,,,,>,>,,,,>,>477",
"###<4,4,7424224,4414444,24744244444<4,,,,,4,4,3,,,1,,,4,,,,4,;,4,>--=$&=&,-,,:,:,,,,,4,,4744424,,,224,,,,4,44,,,,,,,>:,;,4,>,>7>",
"*=+37,,,74,44,22,43,43,444244,24434444,,,44,,44,,,,,,,,,,>,,4,-4y7,:=&#&&>,,,,;,,,,,,42,,,444441,,2,4,,,,,4,,,,,,,,,,,,,,,,>:=w=",
"##*<4,<42442,4,4,,,,4,244,,44444444,43,,4,1,,,4,,,,,,,,>>>,,,,=>,7w>,#&&=-,,,2,,,>,,,,4,4,,,,4142222,,,,,4,44,,,,<,,,,,,,,,>,4i=",
"##%74i4,,,44<44,445,,2444,2,4,444444442,,2,4,,,,,,,4,,,>>-,,44,>=;4,=#&&&=-4,,,,:,,,,,24,,,,44444,4,47,,4,,49,<,,44,,,,,,,,=,74=",
"&&:4,,474,,44,4<,4412424444414,434<44,444,4,4,,,,4,4,,,,,>-,,>,>;;>4,##&&=-4044,,,,,,,,24,,,w44744,4444,4,44744,444,,,4,,,,,>,4#",
"+#>4,,,4,42,424,4441244,,4,2,24,1414,1,2,<4,4<,24,,47,,,4,,>=,,44,;44&##&=,22,,;-,,,,,2,4,,774544,4,44447,4,474,,42,47,444,,,,4=",
"&#>7,4,,<44444424,442444444,4214,4477,,44,43,24,2,,413444,>>,=,,,,;4w%#&=:-,447,444,,4444wd4454,444444444,4,474,4,<,,4,,44,,,,,=",
"#+-9,7q7,47q75474,4,4444,44,,41,,,544,,4444,41<4,4141112,,4,,,=,,,;44##=>;;4,1,420q2,q444444444444q24444,44,47,4,,,457,,44,1,>7=",
"&&$7;4qw414w4414414,,144444,,477qi0474,4444,,,4,74474,,,422,,;::,,,7,==%>,,444444227f,12477444475744q47444442741,,,,444,4,4,;:4-",
"*$=7,717747y8q7qq44354,14424i7774,,,,4774444,,,,227,,7414,44444==,47>=*===,,444,,44qffd774444,1474775q552447475,,,,444444,,,:-,=",
"#*;4,7,447qq50q557q7q5q2270q41,442424,,,47i77ww4,ry,,,,,44,,4,,7,,7>>**===,,,,,,42,455447q444444475755q517f4q4q1,,4,,7,,,,,;>,g#",
"*#,7,,<9q44750757774447w74,4244,44444444444,,1,4,,4,7474,1,,22,11,5=,#**:=:42,,4,424474qq744414444444552475w747,,,,,,;,,,>,,494#",
"##>97w4<q470q8807747774,,,24744,,,,44,,,,,,,,,,,,,,,,;,,44777742477>>*#*=,44,,,4444477w00741144444444744771wi7447774,14;,47044=#",
"##=,;1<,500www00w0ww4;;-;;;>>,,,,,,>>,,,,>,,,,,;,,>:-;>,,,,70ywg44,,=@###,ffq457wi9wq0ygdff0w0qwwffqwyyf74447ccMfggfbfaiyw4,>;##",
"##O###======:=====;;=;>;=;,;>::=:=;->>,:>:-;>>>>>>::=->>;;>>::;;=O##=#++++#=;,,14wgggafw7,>;;;;>,;,>=;;=======:=#====##&#####++#",
"###+####=%=*###=#+#+##@%######$#=##=#&=$&&+++###++##+#+##&&&&#=##%#++#+OOO  O##%=====;===#&=+@+++#####%==$=*%=#$##%%&=#O#+#OOO @",
"++===#$$=###=##+#+++++@O+OOO+OOO++@Oo+++####O+#O#+#O#####&#&=====##OOOOOOOOOO+OO####O+###&##=#++#####+.*#&$$===##%%%%%#O+##=#=#+",
",>>>=$##+#=>>>>,>-===%%#@O+OOO O ++++++###,,<,,;:==:>,,:->;===;,,>>;:=;=#+O+O+#&=%#&#OO####&#=#+&&&###+O#$#+##%#%#=&%+#O@#=,743,",
",3,4474=;,1,7479w747774774>,;;,;,>>>-<=#&-74wajyww,>,77,,,,7jd0ww471,47,;,,:;1w7>42,,,,>:=:;>>,=::,,,,,;>>>>;,,,222:==#++=774444",
"na9977w74447ivvasljaafrw77w077ii77iw40,#&,b0ww7,4wjrw0dfw9jzqwiw7f777fwr7vjivvyry44q77741,,,,1,1,44777777744444474,,=#+O+:7bMbcb",
"witjz9wi79bna52,<,,,,:,,;,>,;,,,,4;72ab-=0V,,,,,,,1,257wgi9,,4,,,,,,,,7VFwr7VKFMjyyfyufwyq72457747444441,4444477q574&+OO.=7b4,47",
",<,4ac7gVas44,2<,,,,,,,,,,42,;,74y4777S0,af4141744424,,,17444724,141447ck4444jd7444,,,447qw00q0774777qqfwiia9wg74,4i=OOO+=ww22,,",
"4,4,74igiw94,<,,,,,,,,,4,2,44744wwq774iM,i2,7q744444423747477,4,21,,,,,77,4,24M477,2244454717yw0yidgdf0474244447421i=OO+#=a7744,",
"<444447w4741,,,4,,,,3,,4,,144,,,414142wM0w74714,444174,q,4244,,4,,2,,,,,4:,,70MwM71,44444474242,,444441134444,447,4g-OOO#-ww7411",
",444444w0741,44444,,44,,41,,4,4<,44,777fy8441,;,,,,44,444,444,4,4442,24,,7,10wwf7d4414424775444244444444444442444,4j=+O #>4r74,4",
",4444474777,42,,,1,4,,4,,,,,,,,,1,,4,,040774,;,,;,,414,,4,424,3,444,2,,447,,44yu0w,44wfqq55555424414444471,44444,4gg:@  #-,i741,",
",4,,14447g44,,,1,,4,4,4,,4,,,,,4144,,44,g7q,,,,,444,,,142244,442,4,,,4<,,,w,,,7qf42,707q555qq4554444411474424424,,7c;#+#=,,2w,4,",
",,,,,,4,,,44,,,,,474,,4,,,,,,,,474215,24q0w,,,4,24,444244,4,,,,1,,,,443,,4,,744f4,,,4q742142q5557q757q447w77q24,4,,4:##&=,,,g4,,",
"1,,,,,,4,,,4w44474,,,,,,,,,,,,,,,,>,,2,7,44,,,,4,,4,,44444241,,42,,24,,,,1,q15q7,,,4,4522,222557444777q740wq054,,,45,#O#%>;,w71,",
"1,,4,,,,47447,,,,1,4,,,,,,,>,4,,,47054,,4q44>33,4,,4,,,2444,44,1,,4,24,,,1,0454775,4,24,222244544444444,147q5qq,14,41O+O#:,;1f1,",
",,,,;,144444,1,4,,444,,,,,,,,4,44744;,,147774,,,4,222442,44444444442434442207242457,,71,222522444444324342,17774,,,7f+OO#>,;70,,",
",,;,,4,,3,2,242444,44,,4,,,,,,,,,,,,4,34,,7q,,,444,,42444,,444,41,4,4,7w,4,75,2477411,,4214441444742,,4,,44,4444,4:7c+O +>,>74,,",
",,,4<34,4,4,,44,14,,:,>,44,44,,,,,2,,343437w4144,,,4,,44777,,,1,,4,1,14444,44q1,4w444,,,254444444454,,4,,4,4,,774,4,c#+#=>,,w2;,",
"1,4,,,4,,444,,,441474,,,4w443444444,4444444w4,,44,,,,,4444444;,444,4444477,1q4,4,7444,44441474444401,4,,,44,4,074,44f==%->,77,,>",
",4,<4,,,,23444,,25,;=4>,,,,44,,>,,445333474474,4,,,,,,,<444,44,,44,,44447727wq,4443,,44144747,4441q,,,2,>4244,4744,,f#@##>-a4,,,",
",3,1,,,,,44<4,,4,,,,;4,,,,,,,44444334355q41,4,,,,,,,,>4,,1,4<4744414445447417w474,,,,44424474444447,,4,,,344,414444,f#OO+=4g,,,,",
",,,,,,,4,,,,,>,=&=;,4744744,4444424147y744,,4,,,,,,,,,,,,<3,4,474,,4444,4qw00741,,,44,1444441414444,,,1,,,,<42444,,7u#OOO=wg1,4,",
",,,,,,,>>,2,,,>=,,,244747474,,4,4447q7qq414,4,,>;,>>,,,,44344,444,,44444,74q5744,,,,42,444144444444,;,,,,<42,,,144,ww+OOO=0z7,22",
",,,>,,,>,,4,,==,2,,2,4444444,4,3,444y4444q3,44,,,>,,,,,:4,,44,,4444,4,,1,24f444,4;,,,444,,41,,442772,,,;,,11,,744,4c>   O=4g1,,,",
",,,,4>,>,,4444>,44,,,,4444444,,,,4,422,,,74,w,,;,>>,,,,,,4,3444,434,4,,4,7i7,4,144,1347444444,444w74,,,,;4,1,wd,7,4f=O#O+=wc,,,,",
",,,,,,,,,47444,3,,,44474444<,2,,4,2,,,,,,,,574,,,,,,,,>;4,<,,4,,4444,4444w71147447744444,,444,,4y7,44,,,,,14wh4,740y;OO%#=wd,,,,",
",,,,,,,,7q4444,,4,,,,,444444,,,,,,,,,,,,,,,77,,,,,,,,,,,4,3444444,,41144i44444444,1144,,,,444441444,4,,144;gZ7,w74w7=++OO=ug>,,1",
",>>,>,,,5w74,414,4,,,774,14,,,,,,,,,2,,,3,,474,,,,,,,,,134,4,4w44443411qw7741444,,,,,,,,,,,1444,,4,,,441,,7ci1227471>#+O#=wg;:;,",
",,:,44444w47447gw,,;,i44433,,,::;,;,,,,,,1,q7,,,1,,,4,,7<,3,,44,4,4414775455544104,,,,,,,,,,74,44,,,;44,4,,d7,471q20:+#+%=7i,;>>",
",>,,3434yw11,34q7,,7iw,,4,33,:,,,,;,,,,1,44f4447114,,44w,4,4,44444444444521474444q41,,;,,,,315<,,>,,,,,,,,1Zc4;4qfgn=####;7f1:>,",
"::,,,,;2744,,44wf7wg74,<2,,>,,,,,>,,,,,4,47f,,,,7,,,,14744<,4,23,47444445574555577744,,,,,,3,44,,,,,,,,44444gc100,4c=##+#,4w0:>>",
",,::;,,,7411,,44gf4,4,4,44,,:,,>:,,>,,1,,1,f4444,447w7,,,,,4,4,,7771444775055515wf05,,,;,,,,,3,34,,,,,,44742qM74,,,4>&##=774a,-,",
"::--=>,-42,,,4,,,,4,,,444,,,,,,:,->,,,747i,y2,,,,4,,,,,,,,44,<447445444420y05755w71,,,,,,4,,,,,,,,,,;,444,4440744,,4>&#+#7q7,;=;",
":->>>,::74444,,45,,,,,,,22,,,>,::,,,,,,,,7,4,44,,,,:>,,:,,,,>3,42475474,2,255457471,,,,,,,,,,,2,,,,>,4,4,1,547f41717>&#O=704;==,",
":-::>,>>7,44,2,,14,1,,>,,>:,:,,,,,,,,,,-;74,7,,,=,,,:,:,,,,,,<,,w44444,,,,,21755414,111,,,,,,,,,,,,44,4741547w44,44h,&O O5f,:=,,",
"->,>:>>45,4,4,4474,;;>,>>>,>:>,-,,4,::::47:i,,;,:>>,<,:,>,,,,,4w4,1444,,2,,,215547w44,,,,,44,,2,41,44,4ww454054,1,,C4=   7724,=;",
">>:=,-4r741,4,,4,>>,>,;:>:-::,=2:>::-,=;,4=gid72,,,,,,47777qwwg714,44,44,,,,2227ww2,,,1,,,,41,4,,,,,77444qw74,111,,z7-+OO2i,2,,:",
",>>=44,-74,,,,,,,,>2,>>>:>>,2,:,,,:=,7;,44O-=;>2,,,,,,>====>,>,4w41,4,7,,,,1,5q274114,4,,2444q444w4q04,,,,,,,175,,7c4=+#+,w,>,,:",
"::>7w>===,4,,;,44,--,,,,:=442,,2447,44>7i>+============>====:>=>77q42142,,,427,,,444447447774,,477wfZi4;5,2,,,cggwgg4>=+O>q,,,,>",
"7w7,=&#===:7,7,,474,,:,,,70,=>:=,,;-=,y,,=O===--======--:========,w0wg000wfg0550i777,140q,=#%&====:,21,,0ii01wgwwqfw,**#+=zw0ri7",
"O++#=###%O#+##*>==;=###===,=-=======%=;,,;O=4;:=##=====>>->=====##=====#&==:;=*###*#+###;14,;==>,,&#++.#&##====4w15,=====#==&#++",
"+#======:>===>=$##%====#==>>>>-===###&==;=@+###++ ##+#==:==$#=##O##======&%##+O+@O+O#@O##+##+====+O++#.+++ ###=#=========:##+#++",
"+======;==:,>=>>;>;;,;;=#==#&&%###=&&=:;==#=$======##X+#*=   +@+#===;;;,,,;=+O++OOO @#++#+#+OOO@  + +   .  +###&#%%======-&+++#@",
"4,,:,,1,,,,4747777077774=:,,>,4wrfww0747w4,,,>->:=::::,>-3++@@++,774770700qqw7753;=,>>,>;;;===####&&#&&&-==O#+###%&=-;>;,>&#%@%>",
"i7gchf0hw0wwwwwq7q00q7wwq447rd0y00q00w070qq7>>,,>>,>44,77<#O#+O#w4q5175574q77572,477q744474q74,,>>,,,;,>,,,-++##=;=,;;;,q4:=,7gM",
"4747qwufMycdgwfgafaifghw0tbiww5747777w0r75wwiwwwuw4770Cd4<>=+@=:qwhwbbiqyw775401511477qwffdhd0q,,,,4552,,,:-=@+>4qcfayw77dMyfw77",
"44445777fgHdfcgiwfiifiabMnd44421,,,,,245211474,4,,,,;,wM7i4>=+3wydz47zcMMggfcg7705404qfywwyff77wwyiriwrw70,>=++,40742444777fg4,4",
"22,214144wq444447444444444274544224,1,44554444>,,44,>,,gcq7,> 7w4d42,,72,4220dffdfiif5414447w07445470724,,7--&@>5f442,4,2244f412",
",4,44<4,44414,444444,4274747744,,42,,4442w1742,,4444,>,,c474,O74yq,1,,,,,,2,40wc2q54,4441,,47744144477,4,,f:== =,q711144q44444,,",
",,,,,4,4247411,4244444,54447444424,42,4,424477444,,344,,77,2= 4,f,,,;,,44244,4,,,2,2,444,4,444,4214,444,,,y,>=#:5y524474444,,,<>",
",,,,,442427,44444444424442444424224,444444,44,,44,,2,4,,74,2, 474;;1,,,,,4,<,4,,,2,4444,,42,444,,,44,44,2,01>-+=5f7777441,,2,,<,",
",,4,4,224444444,,4,2,4,44274,444,424,444144,44,,,<4,4,,2f4,,,+,w2,,,,4,4774,4,4;,,,,,,,442444,,444,44444,,05,:==5f544544,14,4,4,",
",22,4,2,,24024,,,,,4,4,,2274,4444,,4,2,,244444,,,244,4,,f,,,==,4y1,,,,2,4,4,4,4,,,,,,,,,,,4,,,,,,414444414y,;=#=5f424444,<,4,,4,",
",>,>,,444442024;,,4,42q222712444,,,,4,4,,,,,,44,2,,,,,,4f2,;=&,4y,,,,4,444144,7,,;,4,44444,,,444,,,4147444y,;=#%7ydq444,23<,,,,4",
"2>===>;1,<440,,=,4444447414,444,4,,222254,,4,,412,4,4,,274,,= ,,w,,,,,44444445,,4,,,,,444474,,:,2,,,442447g>:===04dr74,,,,,,,,,4",
"2w,==:474w04>-:;;,,q44444,4,2,24,,,,2,4,,2,,,,,,,,,,,,,9c44:=#>,4,,,11,4q44744,,,,2,,4,4444,,,,>,4q4447774d,>=O#2220774,,>,,>,,,",
",4c7=,,,244,==--::>4747q2444,,,q4,,,,,,22,,,,,,,,,444,5ca4w:#=>,4,,,42,4447277,,,,441144771244,,,,45444450a2,=+#2444g47,1,,;,,,,",
",,4w7,,124,===->>,>,747714,444,,4,,,,2,,,<>>,,,,,,,7475c>->=# >,4,,>,,144447442,,,,q7qw044>,,3444,57444425i2;;&&7744g4444,,224,,",
",,,,,77,,4,====,>,>>,4,,24,4,,,;>4,;,,,,4,,>,2,,,,,,,,50:===+O>,4,,,,2,4,14444,4;,,,,21q,,,>34344407qq4452qy>:==w44wMq41,4,,,424",
"4,,4,147,,,=>:=>>>--7,,2,,,,;,,,,,,,,,,,,,,424,,2,,,4700,-,=##-,74,,,1,44,1,7,>==:,,42274,,,,444,7742444414i2,==w77wg4,,,;,,,,44",
",14,,4,474,>>;;=:->>4,,2,,,,,,,,,,,,,1224,4,74,:,,,>,,77,,>,#=:04c4,,,4,1,4w,,,,,;,,244774,12<4,2444445574wq2>==y075q2,;,,,,,,,,",
",,,14,,2,44>,,,;>>2=4,,,,4,,4,,,4,,4,2,54,,2471;:,,,;,,,->>>;+&:=7C,,,,,,42q0411224w01274444444444q44,244fy74,=-y0q2fq5,::,,,,,,",
",,4,,44,4,,,,q747,q4,,424,,4471<,4224,,,,4,w4,17,,,>>>,7=>>>==&=,7c,,;,,,,27b4424yww4447474,,4442,2544q20r7,,:&=y77q0411,>;,,,,,",
",4,4,,4,,4,4,47qy474,,,4444447,444,,,1,04474,,;,244,,,4q,,44;=;,,4,,,,,,,,4,MCCVwg421,1744444444442q44444ww,,,=>w775z7,,,,,,,,,,",
"43,4<,4,4,44,4,,,4,4,,4,,,,,,44,444,4470,4,,,,>,,,:2,:4i4474,&=744,,,,,,,,,,,4c7,414744474444,44442544224wd7,,=,q777j7,,>,,2,,4<",
"44,43,,<,47714,4,,4,44,,4,,,107,,,4,,,2544,,:;,,,,,2424nwii4,#,77,,,,,,;>,,,4,,,22444771,4,444,1442744444474,>=-q774g4,,,,,,4<44",
",444,4,444,4w77741344444444gbi4,,47,,,75444,>,,,,,>,447,wi-,==777,,;,,,,,,,,,4,,4444qq57,4441444422q,4224441,-=>040cw1,,,,-,,,,,",
"4,,43,4,4,,,,4,447w0447447,4414,,,,,44w14442,>,,,,,4,4447d-===qb17,,,,;,>,,,,,,,44475q45q2,4,414424444,,,3w4>-=>74iw1,,,,,,,,,,4",
",4,4,<4,,,,,1,,,,,4f7444744444,,,,,,4474<,44,,,,41,44,44qi,=#=,07,,,,,;,>,,,;,,,4417q54q752,4444,2,4,,,4,470,=#=7qg,,,,,,,,,,<,4",
"444,4,4,4,,,,42,,1,,g7745424444;,,,4,4744444,>,,,4,,,4,45y== #:47,,,,,,,,,>,,,,,4445q8555qq2,,144,4,,,,4,,,q;=#=57f,,,,,>,,,,44,",
"44,,,4,<,4,4,,,4,44,441444,,,7,,,4444,7,444,<>,,,,4,4,,4qy:= &,,w4,,,,,;,>;,,,,,,4440qq2q55744,,,,,4,4,,44,7,=+=47q,,,,,,,,,,,,4",
">>444,4,,,,,24,,,,4,1144744,,,,,42,2247,,4444,>,,,,4,,45cg,=+#,,577,,,,,,,,,,,,4,14452444q4474,472,,,,,,,,,4=%##107,,,,,,2,,4,44",
">=,3,44,,,,,,,1,4,44444,,44,,,,4,42,,7,4422,4,>,,,,,,,,477,,=+=7q,,,,,>,,,,,,,,,222441,,27444q47433,<,,,,,,4=+##,77,,,,,,,,,4444",
"7,,,,<,,4,44,4,4,4,4444,,444,,2,4,,4,4,4,,444,><,,,,;,47gq,,===,q,,,,,,,,,,,;,,,,222,,,,447242,47,44<,,,,,71=OO+,0f1=,,,,,,,,1,4",
"44,,,,<3,44>,44,44444,,44,44,4,222444,,,2,,244>,4,,,,,,,i7>>;;=,4,,,,>,4,,,,,,,=:w7,,,,,w74444,,442,,4,,,,,7= O+,qi;,,,,,,,,54,,",
"37,,,,3,,,,,4,,<1,4,4,,,44,47w,4,4,<,24,,2,444,,,,,,,,,,7i,>->,>2,1;,,>4db4,>>7==M,::>:,q4707q,,,,,22,,,,47q+O##=qg,,,44,7441447",
"4,,44,,,,,,4,<3,,4<4,,,,,,,,,4,1,44,44,,,4,4,7,;,,,,4,;,4i;==>,4,4,,,,,,7i,,,44=g4,,,>>,y75070,,44,1,4,,,w,;+##+=0M4;,,244244247",
"47443,,,<4444,,444432,2,,,,,,,,44,44,4,,,,,4,741,,,,,2,47q,:=;,,,,,;;,,>,,4,,,VHd,,,,,,,74q5yy,4,44,,444;===++O#=7y4,,>4422,147,",
"47;,,,144444,<4,,433,,,,:,,,,,,444244,,,,,24,,44,,4,4,,177::==,4,,4,,,,,=,4,,,4g4,,,,,,4,17qff7444,,,,4>==#%+O@#&,71,4,44,24,424",
"7,,,,4444,4744,4,,,3,,,,,,,,444,,,444,,,,,2,44474,14,24,74:==-;q:,,q,,,>,444,,4<,,,,,,02,175yy442,,,,,,%====#+O#=;,57;,24,224414",
",,,,7444,444,4,,2222,,,,,,,:,,,,,24444,,,,,,,444,4,4,,5777====>7,4,,,,,;,,,4,,14,,,,,,w,,,7w7,,,,,,>,4>=,>=##+ +=;,4w,,2,,4,,444",
",,4434,,47,44444,,,,,:,,:,,,,,,,,,4,,,,,,,,,4,44,,,,47,1t,###==;47f,,5,,,,,44,4,,22,47,,,,47;,,,,,,,4,=>>,2=+O++=;,,u4,,4,,1442,",
";444,4,4,44433,>>,,:::2,,,::-,,,44,44,4,,,,,7441,,475ii7=#=##==>=>,4,47;,,,,,24jw,4,,,,,244,>,,,,,,,4--,>,4=+@O#=>,724,4444442,,",
",1,,4,414334,3,>,,::::,:,:::-::;,2,>,,4>,,,,,444w447fi,==#+##%==>,q>,;41,;>,>>,g,:,,,,,,227=>,,,,w,4,=>,,,4:#++#>>,y,7,447,,,,;,",
",44,,3,>,4447,>-=:>::=::>:>>-=-a;,:,,,,,,,,1242,44507=====####==>,i,,7=70,2;,,7,,,,,,<,>,4,:,74,>,>4>=,::>4:+O#+%:,s,,44,17,,,,,",
",4,,,,,,,=;;7,::=:-:=:::>====,w7i:::;>,,,1,42,477,yg====#=++#+#=,,,444,4c0r4477,>,4,,,44,7,,7,;;,,,>=,2>,,,### ##,,g4,,444,:,,,;",
"7,1,,,>,=:===1:======:=--=>=,,;=4474,>;>;,;4rw,;===##=#=*#OO+++#=,,,ww=&427,;72;,2>==-=->>,4<->,,,>:>>=&===*OO  =->ii,,,;,,:,,,7",
"4,,7,=========27:,-=:=====;==#+### >y,4577;;=====:=O#O#O+++@#+###,:=;,==+===%#%==&&&&####@+%&###++*+#+++#OO#+OOO##=47fd447w7,4,,"
};
